<svg xmlns="http://www.w3.org/2000/svg" viewBox="0 0 640 280" font-family="Comic Sans MS, system-ui">
  <rect width="640" height="280" fill="#fffdf7"/>
  <text x="160" y="30" text-anchor="middle" font-size="20" font-weight="bold">CPU</text>
  <text x="160" y="50" text-anchor="middle" font-size="13">poucos núcleos grandes</text>
  <g fill="#4c6ef5" stroke="#1c1c1c">
    <rect x="90" y="70" width="60" height="60" rx="6"/>
    <rect x="170" y="70" width="60" height="60" rx="6"/>
    <rect x="90" y="140" width="60" height="60" rx="6"/>
    <rect x="170" y="140" width="60" height="60" rx="6"/>
  </g>
  <text x="160" y="240" text-anchor="middle" font-size="13">faz 1 coisa de cada vez, muito rápido</text>

  <line x1="320" y1="40" x2="320" y2="240" stroke="#bbb" stroke-dasharray="4"/>

  <text x="480" y="30" text-anchor="middle" font-size="20" font-weight="bold">GPU</text>
  <text x="480" y="50" text-anchor="middle" font-size="13">milhares de núcleos pequenos</text>
  <g fill="#37b24d" stroke="#1c1c1c">
    <!-- grade 8x4 de mini-núcleos -->
    <!-- gerada manualmente -->
    <rect x="370" y="70" width="16" height="16"/><rect x="392" y="70" width="16" height="16"/><rect x="414" y="70" width="16" height="16"/><rect x="436" y="70" width="16" height="16"/><rect x="458" y="70" width="16" height="16"/><rect x="480" y="70" width="16" height="16"/><rect x="502" y="70" width="16" height="16"/><rect x="524" y="70" width="16" height="16"/>
    <rect x="370" y="92" width="16" height="16"/><rect x="392" y="92" width="16" height="16"/><rect x="414" y="92" width="16" height="16"/><rect x="436" y="92" width="16" height="16"/><rect x="458" y="92" width="16" height="16"/><rect x="480" y="92" width="16" height="16"/><rect x="502" y="92" width="16" height="16"/><rect x="524" y="92" width="16" height="16"/>
    <rect x="370" y="114" width="16" height="16"/><rect x="392" y="114" width="16" height="16"/><rect x="414" y="114" width="16" height="16"/><rect x="436" y="114" width="16" height="16"/><rect x="458" y="114" width="16" height="16"/><rect x="480" y="114" width="16" height="16"/><rect x="502" y="114" width="16" height="16"/><rect x="524" y="114" width="16" height="16"/>
    <rect x="370" y="136" width="16" height="16"/><rect x="392" y="136" width="16" height="16"/><rect x="414" y="136" width="16" height="16"/><rect x="436" y="136" width="16" height="16"/><rect x="458" y="136" width="16" height="16"/><rect x="480" y="136" width="16" height="16"/><rect x="502" y="136" width="16" height="16"/><rect x="524" y="136" width="16" height="16"/>
  </g>
  <text x="480" y="240" text-anchor="middle" font-size="13">faz milhares de coisas ao mesmo tempo</text>
</svg>
