<svg xmlns="http://www.w3.org/2000/svg" viewBox="0 0 660 300" width="660" font-family="sans-serif">
  <rect width="660" height="300" fill="#fbfbf7"/>
  <text x="20" y="28" font-size="16" font-weight="bold" fill="#333">Toda frame, o jogo roda shaders na GPU pra desenhar a tela</text>
  <g font-size="13" text-anchor="middle">
    <rect x="40" y="90" width="120" height="60" rx="8" fill="#e7f5ff" stroke="#1c7ed6"/><text x="100" y="125" fill="#1c7ed6">🎮 Jogo</text>
    <rect x="220" y="90" width="120" height="60" rx="8" fill="#e7f5ff" stroke="#1c7ed6"/><text x="280" y="118">Shaders</text><text x="280" y="136" font-size="11" fill="#666">(M1–M12)</text>
    <rect x="400" y="90" width="120" height="60" rx="8" fill="#fff4e6" stroke="#e8590c"/><text x="460" y="118">GPU</text><text x="460" y="136" font-size="11" fill="#666">núcleos (M6)</text>
    <rect x="560" y="90" width="80" height="60" rx="8" fill="#ebfbee" stroke="#2b8a3e"/><text x="600" y="118">Frame</text><text x="600" y="136" font-size="11" fill="#666">na tela</text>
  </g>
  <g stroke="#888" stroke-width="2" marker-end="url(#a)" fill="none">
    <line x1="160" y1="120" x2="216" y2="120"/>
    <line x1="340" y1="120" x2="396" y2="120"/>
    <line x1="520" y1="120" x2="556" y2="120"/>
  </g>
  <path d="M600 150 Q600 230 100 230 Q60 230 60 160" stroke="#9c36b5" stroke-width="2" fill="none" stroke-dasharray="6 4" marker-end="url(#a)"/>
  <text x="330" y="250" font-size="13" fill="#9c36b5" text-anchor="middle">repete 60× por segundo (M1)</text>
  <defs><marker id="a" markerWidth="10" markerHeight="10" refX="6" refY="3" orient="auto"><path d="M0 0 L6 3 L0 6 z" fill="context-stroke"/></marker></defs>
</svg>
