<svg xmlns="http://www.w3.org/2000/svg" viewBox="0 0 760 320" width="760" height="320" font-family="system-ui, sans-serif">
  <rect width="760" height="320" fill="#fff"/>
  <text x="380" y="26" text-anchor="middle" font-size="15" font-weight="bold" fill="#333">O pipeline: estações que VOCÊ programa × estações FIXAS (hardware)</text>

  <!-- legenda -->
  <g transform="translate(230,40)">
    <rect x="0" y="0" width="16" height="16" fill="#d3f9d8" stroke="#2f9e44"/>
    <text x="22" y="13" font-size="12" fill="#2b8a3e">programável (shader)</text>
    <rect x="200" y="0" width="16" height="16" fill="#e9ecef" stroke="#868e96"/>
    <text x="222" y="13" font-size="12" fill="#495057">fixo (circuito dedicado)</text>
  </g>

  <!-- 4 caixas em fila principal -->
  <g transform="translate(20,80)" font-size="12">
    <!-- vertex (prog) -->
    <rect x="0" y="20" width="130" height="70" rx="8" fill="#d3f9d8" stroke="#2f9e44" stroke-width="2"/>
    <text x="65" y="48" text-anchor="middle" font-weight="bold" fill="#2b8a3e">Vertex</text>
    <text x="65" y="66" text-anchor="middle" fill="#444">posiciona (M7)</text>
    <text x="152" y="60" font-size="18" fill="#888">→</text>
    <!-- rasterizador (fixo) -->
    <rect x="170" y="20" width="130" height="70" rx="8" fill="#e9ecef" stroke="#868e96" stroke-width="2"/>
    <text x="235" y="44" text-anchor="middle" font-weight="bold" fill="#495057">Rasterizador</text>
    <text x="235" y="62" text-anchor="middle" fill="#444">triângulo→</text>
    <text x="235" y="77" text-anchor="middle" fill="#444">fragmentos</text>
    <text x="322" y="60" font-size="18" fill="#888">→</text>
    <!-- fragment (prog) — TMU é acoplada por dentro -->
    <rect x="340" y="20" width="130" height="70" rx="8" fill="#d3f9d8" stroke="#2f9e44" stroke-width="2"/>
    <text x="405" y="44" text-anchor="middle" font-weight="bold" fill="#2b8a3e">Fragment</text>
    <text x="405" y="62" text-anchor="middle" fill="#444">pinta (M1–M10)</text>
    <text x="492" y="60" font-size="18" fill="#888">→</text>
    <!-- Z-buffer / ROP (fixo) -->
    <rect x="510" y="20" width="130" height="70" rx="8" fill="#e9ecef" stroke="#868e96" stroke-width="2"/>
    <text x="575" y="44" text-anchor="middle" font-weight="bold" fill="#495057">Z-buffer / ROP</text>
    <text x="575" y="62" text-anchor="middle" fill="#444">quem está</text>
    <text x="575" y="77" text-anchor="middle" fill="#444">na frente ganha</text>
  </g>

  <!-- TMU acoplada ao Fragment (abaixo, com seta de serviço) -->
  <g transform="translate(20,80)" font-size="12">
    <!-- seta descendo do Fragment para TMU -->
    <line x1="405" y1="90" x2="405" y2="118" stroke="#2f9e44" stroke-width="1.5" stroke-dasharray="4,3"/>
    <polygon points="405,122 401,115 409,115" fill="#2f9e44"/>
    <!-- seta subindo de TMU de volta para Fragment -->
    <line x1="420" y1="118" x2="420" y2="90" stroke="#868e96" stroke-width="1.5" stroke-dasharray="4,3"/>
    <polygon points="420,86 416,93 424,93" fill="#868e96"/>
    <!-- caixa TMU -->
    <rect x="340" y="122" width="130" height="60" rx="8" fill="#e9ecef" stroke="#868e96" stroke-width="2"/>
    <text x="405" y="145" text-anchor="middle" font-weight="bold" fill="#495057">TMU</text>
    <text x="405" y="161" text-anchor="middle" fill="#444">busca o texel</text>
    <text x="405" y="175" text-anchor="middle" fill="#444">(texture2D, M9)</text>
    <!-- rótulo da seta de chamada -->
    <text x="432" y="112" font-size="10" fill="#2b8a3e">pede texel</text>
    <text x="432" y="100" font-size="10" fill="#868e96">entrega</text>
  </g>

  <text x="380" y="265" text-anchor="middle" font-size="13" fill="#444">Você escreve só as caixas verdes. As cinzas são tão usadas que viraram circuito dedicado — e por isso voam.</text>
  <text x="380" y="286" text-anchor="middle" font-size="12" fill="#888">A TMU não é uma etapa depois do Fragment — é um serviço que ele aciona por dentro ao chamar texture2D.</text>
  <text x="380" y="307" text-anchor="middle" font-size="12" fill="#888">(ROP/Z-buffer decide o que aparece na frente, pixel a pixel)</text>
</svg>
