<svg xmlns="http://www.w3.org/2000/svg" viewBox="0 0 720 200" width="720" height="200" font-family="system-ui, sans-serif">
  <rect width="720" height="200" fill="#fff"/>
  <text x="360" y="26" text-anchor="middle" font-size="15" font-weight="bold" fill="#333">A linha de montagem: do vértice ao pixel</text>
  <g transform="translate(20,50)">
    <rect x="0" y="0" width="200" height="110" rx="8" fill="#e7f5ff" stroke="#1971c2" stroke-width="2"/>
    <text x="100" y="24" text-anchor="middle" font-size="13" font-weight="bold" fill="#1971c2">1. Vértices</text>
    <circle cx="55" cy="80" r="5" fill="#1971c2"/><circle cx="145" cy="80" r="5" fill="#1971c2"/><circle cx="100" cy="45" r="5" fill="#1971c2"/>
    <text x="100" y="104" text-anchor="middle" font-size="10" fill="#666">o vertex shader os POSICIONA</text>
  </g>
  <text x="240" y="114" font-size="22" fill="#888">→</text>
  <g transform="translate(260,50)">
    <rect x="0" y="0" width="200" height="110" rx="8" fill="#fff9db" stroke="#e8590c" stroke-width="2"/>
    <text x="100" y="24" text-anchor="middle" font-size="13" font-weight="bold" fill="#e8590c">2. Rasterização</text>
    <polygon points="55,80 145,80 100,45" fill="none" stroke="#e8590c"/>
    <text x="100" y="104" text-anchor="middle" font-size="10" fill="#666">vira muitos fragmentos (pixels)</text>
  </g>
  <text x="480" y="114" font-size="22" fill="#888">→</text>
  <g transform="translate(500,50)">
    <rect x="0" y="0" width="200" height="110" rx="8" fill="#ebfbee" stroke="#2f9e44" stroke-width="2"/>
    <text x="100" y="24" text-anchor="middle" font-size="13" font-weight="bold" fill="#2f9e44">3. Fragmentos</text>
    <g fill="#2f9e44"><rect x="60" y="60" width="10" height="10"/><rect x="72" y="60" width="10" height="10"/><rect x="84" y="60" width="10" height="10"/><rect x="120" y="60" width="10" height="10"/><rect x="90" y="48" width="10" height="10"/></g>
    <text x="100" y="104" text-anchor="middle" font-size="10" fill="#666">o fragment shader os PINTA</text>
  </g>
</svg>
